Patient4_TMGait_0pt5_01_left_01_GRF.mot
version=1
nRows=37
nColumns=19
inDegrees=no
endheader
time	F1x	F1y	F1z	M1x	M1y	M1z	F2x	F2y	F2z	M2x	M2y	M2z	EC1x	EC1y	EC1z	EC2x	EC2y	EC2z
1.17	0	0	0	0	0	0	-34.9821	770.1298	-61.0096	302.0799	62.2041	609.3502	-0.0462	0.0182	-0.0073	-0.0462	0.0165	0.9715
1.1834	0	0	0	0	0	0	-33.7616	798.0577	-61.0515	312.7045	61.7276	629.3451	-0.0462	0.0182	-0.0073	-0.0462	0.0165	0.9715
1.1969	0	0	0	0	0	0	-31.1064	806.9764	-59.3858	315.8885	59.2876	633.5893	-0.0462	0.0182	-0.0073	-0.0462	0.0165	0.9715
1.2103	0	0	0	0	0	0	-27.3784	801.681	-56.5762	313.5426	55.4679	625.9292	-0.0462	0.0182	-0.0073	-0.0462	0.0165	0.9715
1.2237	0	0	0	0	0	0	-23.0074	787.7481	-53.2297	307.8706	50.9183	610.8786	-0.0462	0.0182	-0.0073	-0.0462	0.0165	0.9715
1.2371	0	0	0	0	0	0	-18.4244	770.5856	-49.9013	300.9944	46.2526	592.8519	-0.0462	0.0182	-0.0073	-0.0462	0.0165	0.9715
1.2506	0	0	0	0	0	0	-14.0065	754.6883	-47.0258	294.6638	41.9717	575.5599	-0.0462	0.0182	-0.0073	-0.0462	0.0165	0.9715
1.264	0	0	0	0	0	0	-10.0394	743.1747	-44.8801	290.0789	38.4176	561.6272	-0.0462	0.0182	-0.0073	-0.0462	0.0165	0.9715
1.2774	0	0	0	0	0	0	-6.6989	737.6174	-43.5773	287.829	35.7601	552.4474	-0.0462	0.0182	-0.0073	-0.0462	0.0165	0.9715
1.2909	0	0	0	0	0	0	-4.0526	738.1322	-43.0848	287.9324	34.011	548.2454	-0.0462	0.0182	-0.0073	-0.0462	0.0165	0.9715
1.3043	0	0	0	0	0	0	-2.0757	743.6595	-43.2606	289.9511	33.0581	548.2966	-0.0462	0.0182	-0.0073	-0.0462	0.0165	0.9715
1.3177	0	0	0	0	0	0	-0.67687	752.3638	-43.8992	293.1494	32.7103	551.2397	-0.0462	0.0182	-0.0073	-0.0462	0.0165	0.9715
1.3311	0	0	0	0	0	0	0.27406	762.0744	-44.7785	296.6669	32.7462	555.422	-0.0462	0.0182	-0.0073	-0.0462	0.0165	0.9715
1.3446	0	0	0	0	0	0	0.92005	770.702	-45.7024	299.6811	32.9556	559.2248	-0.0462	0.0182	-0.0073	-0.0462	0.0165	0.9715
1.358	0	0	0	0	0	0	1.3978	776.5793	-46.5318	301.5391	33.1725	561.3272	-0.0462	0.0182	-0.0073	-0.0462	0.0165	0.9715
1.3714	0	0	0	0	0	0	1.8264	778.6873	-47.2031	301.845	33.2927	560.8813	-0.0462	0.0182	-0.0073	-0.0462	0.0165	0.9715
1.3849	0	0	0	0	0	0	2.3032	776.7501	-47.7281	300.4956	33.2774	557.5864	-0.0462	0.0182	-0.0073	-0.0462	0.0165	0.9715
1.3983	0	0	0	0	0	0	2.9042	771.195	-48.1803	297.6649	33.1428	551.6642	-0.0462	0.0182	-0.0073	-0.0462	0.0165	0.9715
1.4117	0	0	0	0	0	0	3.6869	762.9929	-48.6665	293.7429	32.9407	543.7459	-0.0462	0.0182	-0.0073	-0.0462	0.0165	0.9715
1.4251	0	0	0	0	0	0	4.692	753.4091	-49.2928	289.2391	32.7337	534.6973	-0.0462	0.0182	-0.0073	-0.0462	0.0165	0.9715
1.4386	0	0	0	0	0	0	5.9441	743.7071	-50.1308	284.6681	32.5716	525.4102	-0.0462	0.0182	-0.0073	-0.0462	0.0165	0.9715
1.452	0	0	0	0	0	0	7.4506	734.8575	-51.191	280.436	32.4729	516.5971	-0.0462	0.0182	-0.0073	-0.0462	0.0165	0.9715
1.4654	19.2906	11.6952	-0.7639	-4.5258	8.7628	7.1615	9.2005	727.3033	-52.4094	276.7481	32.4148	508.6251	-0.0462	0.0182	-0.0073	-0.0462	0.0165	0.9715
1.4789	22.6186	31.2242	-1.065	-12.1691	10.2583	24.7273	11.1625	720.8245	-53.6493	273.5547	32.334	501.4171	-0.0462	0.0182	-0.0073	-0.0462	0.0165	0.9715
1.4923	24.0714	57.5879	-0.84944	-22.4499	10.527	48.6349	13.2848	714.5264	-54.7183	270.5433	32.1363	494.4376	-0.0462	0.0182	-0.0073	-0.0462	0.0165	0.9715
1.5057	23.0834	90.4533	0.075159	-35.2289	9.1866	78.6066	15.4939	706.9525	-55.3974	267.1796	31.7151	486.7652	-0.0462	0.0182	-0.0073	-0.0462	0.0165	0.9715
1.5191	19.4089	128.888	1.8462	-50.1361	6.0349	113.7822	17.6939	696.2977	-55.4758	262.7872	30.9739	477.2331	-0.0462	0.0182	-0.0073	-0.0462	0.0165	0.9715
1.5326	13.1883	171.4821	4.5119	-66.6205	1.1051	152.8175	19.7651	680.6838	-54.7868	256.6514	29.8487	464.6139	-0.0462	0.0182	-0.0073	-0.0462	0.0165	0.9715
1.546	4.9256	216.573	8.008	-84.0401	-5.3248	194.0859	21.5647	658.45	-53.2361	248.1296	28.3261	447.8156	-0.0462	0.0182	-0.0073	-0.0462	0.0165	0.9715
1.5594	-4.6067	262.541	12.156	-101.7776	-12.7707	235.9561	22.9304	628.4146	-50.8174	236.7521	26.452	426.0582	-0.0462	0.0182	-0.0073	-0.0462	0.0165	0.9715
1.5729	-14.5042	308.0987	16.6886	-119.3509	-20.6225	277.0726	23.6898	590.0713	-47.6133	222.298	24.3292	399.0077	-0.0462	0.0182	-0.0073	-0.0462	0.0165	0.9715
1.5863	-23.8755	352.4737	21.3027	-136.4794	-28.2509	316.5435	23.6767	543.6929	-43.7814	204.8378	22.1023	366.8452	-0.0462	0.0182	-0.0073	-0.0462	0.0165	0.9715
1.5997	-31.9647	395.4329	25.7223	-153.0895	-35.1145	353.9861	22.7554	490.3339	-39.5289	184.7384	19.9349	330.2691	-0.0462	0.0182	-0.0073	-0.0462	0.0165	0.9715
1.6131	-38.2366	437.1679	29.751	-169.2644	-40.8385	389.4423	20.8495	431.7376	-35.0827	162.6309	17.9807	290.4314	-0.0462	0.0182	-0.0073	-0.0462	0.0165	0.9715
1.6266	-42.4194	478.0959	33.2998	-185.1658	-45.2544	423.2142	17.9689	370.1639	-30.6601	139.3499	16.3576	248.8209	-0.0462	0.0182	-0.0073	-0.0462	0.0165	0.9715
1.64	-44.5035	518.6396	36.3843	-200.9477	-48.3936	455.6735	14.2293	308.1587	-26.4445	115.8474	15.1267	207.1087	-0.0462	0.0182	-0.0073	-0.0462	0.0165	0.9715
1.6534	-44.7019	559.0308	39.0954	-216.6833	-50.4413	487.0859	9.8564	248.2928	-22.5681	93.0959	14.2819	166.9741	-0.0462	0.0182	-0.0073	-0.0462	0.0165	0.9715
